<?xml version="1.0" encoding="utf-8"?><svg viewBox="0 0 2048 1536" xmlns="http://www.w3.org/2000/svg" xmlns:xlink="http://www.w3.org/1999/xlink"><view id="ask" viewBox="0 0 512 512"/><svg width="512" height="512" xml:space="preserve" viewBox="0 0 512 512" xmlns="http://www.w3.org/2000/svg"><circle cx="256" cy="467" r="45"/><path d="M405.792 142.082C401.741 64.003 337.292 1.607 259.071.03c-1.026-.02-2.043-.03-3.063-.03-74.638 0-138.222 55.019-148.564 129.134A151.469 151.469 0 0 0 105.999 150c0 24.853 20.147 45 45 45s45-20.147 45-45c0-2.827.195-5.661.582-8.426 4.188-30.007 30.222-52.165 60.678-51.562 15.021.303 29.36 6.34 40.379 17.001 11.009 10.651 17.499 24.763 18.276 39.732.865 16.67-4.961 32.489-16.406 44.544C288.051 203.355 272.6 210 255.998 210c-24.853 0-45 20.147-45 45v89c0 24.853 20.147 45 45 45s45-20.147 45-45v-50.968c24.073-7.604 46.159-21.218 63.777-39.774 28.607-30.131 43.174-69.614 41.017-111.176z"/></svg><view id="check" viewBox="1536 512 24 24"/><svg width="24" height="24" viewBox="0 0 24 24" x="1536" y="512" xmlns="http://www.w3.org/2000/svg"><path fill-rule="evenodd" clip-rule="evenodd" d="M3.293 11.607a1 1 0 0 1 1.414 0l4.95 4.95L20.264 5.95a1 1 0 1 1 1.414 1.414L9.657 19.384l-6.364-6.363a1 1 0 0 1 0-1.414Z"/></svg><view id="chevron" viewBox="512 0 512 512"/><svg width="512" height="512" viewBox="0 0 512.012 512.012" xml:space="preserve" x="512" xmlns="http://www.w3.org/2000/svg"><path d="M505.325 129.52c-9.241-9.802-24.699-10.167-34.452-.951l-214.88 203.566L41.138 128.57c-9.753-9.241-25.187-8.851-34.452.951-9.265 9.777-8.851 25.211.927 34.476l231.63 219.439a24.328 24.328 0 0 0 16.75 6.681 24.39 24.39 0 0 0 16.775-6.681l231.63-219.439c9.778-9.266 10.192-24.699.927-34.477z"/></svg><view id="close" viewBox="0 512 512 512"/><svg width="512" height="512" xml:space="preserve" viewBox="0 0 512 512" y="512" xmlns="http://www.w3.org/2000/svg"><path d="M59.65 473.6a21.25 21.25 0 0 1-15.028-36.278l392.7-392.7a21.253 21.253 0 0 1 30.056 30.056l-392.7 392.7A21.19 21.19 0 0 1 59.65 473.6z"/><path d="M452.35 473.6a21.19 21.19 0 0 1-15.028-6.222l-392.7-392.7a21.253 21.253 0 0 1 30.056-30.056l392.7 392.7A21.25 21.25 0 0 1 452.35 473.6z"/></svg><view id="hastag" viewBox="512 512 512 512"/><svg width="512" height="512" viewBox="0 0 24 24" xml:space="preserve" x="512" y="512" xmlns="http://www.w3.org/2000/svg"><path d="M23 7h-4.809l.8-5.865a1 1 0 1 0-1.982-.27L16.173 7H9.191l.8-5.865a1 1 0 1 0-1.982-.27L7.173 7H2a1 1 0 0 0 0 2h4.9l-.818 6H1a1 1 0 0 0 0 2h4.809l-.8 5.865a1 1 0 0 0 1.982.27L7.827 17h6.982l-.8 5.865a1 1 0 0 0 1.982.27L16.827 17H22a1 1 0 0 0 0-2h-4.9l.818-6H23a1 1 0 0 0 0-2Zm-7.918 8H8.1l.818-6H15.9Z"/></svg><view id="like" viewBox="1024 0 512 512"/><svg width="512" height="512" viewBox="0 0 24 24" xml:space="preserve" x="1024" xmlns="http://www.w3.org/2000/svg"><path d="M22.773 7.721A4.994 4.994 0 0 0 19 6h-3.989l.336-2.041a3.037 3.037 0 0 0-5.721-1.837L7.712 6H5a5.006 5.006 0 0 0-5 5v5a5.006 5.006 0 0 0 5 5h13.3a5.024 5.024 0 0 0 4.951-4.3l.705-5a5 5 0 0 0-1.183-3.979ZM2 16v-5a3 3 0 0 1 3-3h2v11H5a3 3 0 0 1-3-3Zm19.971-4.581-.706 5A3.012 3.012 0 0 1 18.3 19H9V7.734a1 1 0 0 0 .23-.292l2.189-4.435a1.07 1.07 0 0 1 1.722-.207 1.024 1.024 0 0 1 .233.84l-.528 3.2A1 1 0 0 0 13.833 8H19a3 3 0 0 1 2.971 3.419Z"/></svg><view id="love" viewBox="1024 512 512 512"/><svg width="512" height="512" viewBox="0 0 24 24" xml:space="preserve" x="1024" y="512" xmlns="http://www.w3.org/2000/svg"><path d="M16.785 3.288A5.568 5.568 0 0 0 12 6.16a5.568 5.568 0 0 0-4.785-2.87A5.916 5.916 0 0 0 1.56 9.421c0 3.956 4.164 8.276 7.656 11.205a4.327 4.327 0 0 0 5.568 0c3.492-2.929 7.656-7.25 7.656-11.205a5.916 5.916 0 0 0-5.655-6.134Zm-3.119 16.008a2.587 2.587 0 0 1-3.332 0C5.864 15.546 3.3 11.947 3.3 9.422a4.176 4.176 0 0 1 3.915-4.394 4.176 4.176 0 0 1 3.915 4.394.87.87 0 0 0 1.74 0 4.176 4.176 0 0 1 3.915-4.394A4.176 4.176 0 0 1 20.7 9.422c0 2.525-2.564 6.124-7.034 9.87Z"/></svg><view id="menu-back" viewBox="1560 512 24 24"/><svg width="24" height="24" viewBox="0 0 24 24" x="1560" y="512" xmlns="http://www.w3.org/2000/svg"><path fill-rule="evenodd" clip-rule="evenodd" d="M16.67 4.293a1 1 0 0 0-1.414 0l-6.963 6.963a1 1 0 0 0 0 1.414l6.963 6.963a1 1 0 1 0 1.415-1.414l-6.257-6.256 6.257-6.256a1 1 0 0 0 0-1.414Z"/></svg><view id="menu-bar" viewBox="0 1024 512 512"/><svg viewBox="0 0 512 512" width="512" height="512" y="1024" xmlns="http://www.w3.org/2000/svg"><path d="M128 102.4c0-14.1 11.5-25.6 25.6-25.6h332.8c14.1 0 25.6 11.5 25.6 25.6S500.5 128 486.4 128H153.6c-14.1 0-25.6-11.5-25.6-25.6Zm358.4 128H25.6C11.5 230.4 0 241.9 0 256s11.5 25.6 25.6 25.6h460.8c14.1 0 25.6-11.5 25.6-25.6s-11.5-25.6-25.6-25.6Zm0 153.6H256c-14.1 0-25.6 11.5-25.6 25.6s11.5 25.6 25.6 25.6h230.4c14.1 0 25.6-11.5 25.6-25.6S500.5 384 486.4 384Z"/></svg><view id="minus" viewBox="1584 512 24 24"/><svg width="24" height="24" viewBox="0 0 24 24" x="1584" y="512" xmlns="http://www.w3.org/2000/svg"><path fill-rule="evenodd" clip-rule="evenodd" d="M2 12a1 1 0 0 1 1-1h18a1 1 0 1 1 0 2H3a1 1 0 0 1-1-1Z"/></svg><view id="plus" viewBox="1608 512 24 24"/><svg width="24" height="24" viewBox="0 0 24 24" x="1608" y="512" xmlns="http://www.w3.org/2000/svg"><path fill-rule="evenodd" clip-rule="evenodd" d="M12 2a1 1 0 0 1 1 1v18a1 1 0 1 1-2 0V3a1 1 0 0 1 1-1Z"/><path fill-rule="evenodd" clip-rule="evenodd" d="M2 12a1 1 0 0 1 1-1h18a1 1 0 1 1 0 2H3a1 1 0 0 1-1-1Z"/></svg><view id="slider-next" viewBox="512 1024 512 512"/><svg width="512" height="512" viewBox="0 0 64 64" xml:space="preserve" x="512" y="1024" xmlns="http://www.w3.org/2000/svg"><path d="M55.856 32 24.539 63.317c-.011.011-.022.022-.022.033H8.644l30.767-30.767a.81.81 0 0 0 0-1.166L8.644.65h15.873c0 .011.011.022.022.033z"/></svg><view id="slider-prev" viewBox="1024 1024 512 512"/><svg width="512" height="512" viewBox="0 0 64 64" xml:space="preserve" x="1024" y="1024" xmlns="http://www.w3.org/2000/svg"><path d="m8.394 32 31.317 31.317c.011.011.022.022.022.033h15.873L24.839 32.583a.81.81 0 0 1 0-1.166L55.606.65H39.733c0 .011-.011.022-.022.033z"/></svg><view id="step-next" viewBox="1632 512 24 24"/><svg width="24" height="24" viewBox="0 0 24 24" x="1632" y="512" xmlns="http://www.w3.org/2000/svg"><path fill-rule="evenodd" clip-rule="evenodd" d="M8.293 4.293a1 1 0 0 1 1.414 0l6.963 6.963a1 1 0 0 1 0 1.414l-6.963 6.963a1 1 0 1 1-1.414-1.414l6.256-6.256-6.256-6.256a1 1 0 0 1 0-1.414Z"/></svg><view id="step-prev" viewBox="1656 512 24 24"/><svg width="24" height="24" viewBox="0 0 24 24" x="1656" y="512" xmlns="http://www.w3.org/2000/svg"><path fill-rule="evenodd" clip-rule="evenodd" d="M16.67 4.293a1 1 0 0 0-1.414 0l-6.963 6.963a1 1 0 0 0 0 1.414l6.963 6.963a1 1 0 1 0 1.415-1.414l-6.257-6.256 6.257-6.256a1 1 0 0 0 0-1.414Z"/></svg><view id="step-prev_copy" viewBox="1680 512 24 24"/><svg width="24" height="24" viewBox="0 0 24 24" x="1680" y="512" xmlns="http://www.w3.org/2000/svg"><path fill-rule="evenodd" clip-rule="evenodd" d="M16.67 4.293a1 1 0 0 0-1.414 0l-6.963 6.963a1 1 0 0 0 0 1.414l6.963 6.963a1 1 0 1 0 1.415-1.414l-6.257-6.256 6.257-6.256a1 1 0 0 0 0-1.414Z"/></svg><view id="unlike" viewBox="1536 0 512 512"/><svg width="512" height="512" viewBox="0 0 24 24" xml:space="preserve" x="1536" xmlns="http://www.w3.org/2000/svg"><path d="m22.278 12.438-.606-4.3a4.32 4.32 0 0 0-4.254-3.698H5.98a4.305 4.305 0 0 0-4.3 4.3v4.3a4.305 4.305 0 0 0 4.3 4.3h2.332l1.646 3.335a2.612 2.612 0 0 0 4.92-1.58l-.289-1.755h3.431a4.3 4.3 0 0 0 4.258-4.902ZM5.98 6.16H7.7v9.46H5.98a2.58 2.58 0 0 1-2.58-2.58v-4.3a2.58 2.58 0 0 1 2.58-2.58Zm13.987 8.573a2.58 2.58 0 0 1-1.947.887h-4.444a.86.86 0 0 0-.848 1l.454 2.752a.88.88 0 0 1-.2.722.92.92 0 0 1-1.482-.182L9.618 16.1a.86.86 0 0 0-.198-.251V6.16h7.998a2.59 2.59 0 0 1 2.554 2.22l.607 4.3a2.58 2.58 0 0 1-.612 2.053Z"/></svg><view id="zoom-in" viewBox="1704 512 24 24"/><svg viewBox="0 0 24 24" width="24" height="24" x="1704" y="512" xmlns="http://www.w3.org/2000/svg"><path d="M11 21C5.49 21 1 16.51 1 11S5.49 1 11 1s10 4.49 10 10-4.49 10-10 10Zm0-18c-4.41 0-8 3.59-8 8s3.59 8 8 8 8-3.59 8-8-3.59-8-8-8Z"/><path d="M22 23c-.26 0-.51-.1-.71-.29l-4-4a.996.996 0 1 1 1.41-1.41l4 4a.996.996 0 0 1-.71 1.7Z"/><path fill-rule="evenodd" d="M11 7c.22 0 .4.18.4.4v7.2c0 .22-.18.4-.4.4s-.4-.18-.4-.4V7.4c0-.22.18-.4.4-.4Z"/><path fill-rule="evenodd" d="M7 11c0-.22.18-.4.4-.4h7.2c.22 0 .4.18.4.4s-.18.4-.4.4H7.4c-.22 0-.4-.18-.4-.4Z"/></svg></svg>